<?xml version="1.0" standalone="no"?>
<!DOCTYPE svg PUBLIC "-//W3C//DTD SVG 20010904//EN"
 "http://www.w3.org/TR/2001/REC-SVG-20010904/DTD/svg10.dtd">
<svg version="1.0" xmlns="http://www.w3.org/2000/svg"
 width="574.000000pt" height="1031.000000pt" viewBox="0 0 574.000000 1031.000000"
 preserveAspectRatio="xMidYMid meet">

<g transform="translate(0.000000,1031.000000) scale(0.100000,-0.100000)"
fill="#000000" stroke="none">
<path d="M4765 10289 c-383 -67 -717 -212 -1163 -505 -292 -192 -357 -246
-622 -514 -135 -136 -282 -277 -327 -313 -105 -84 -230 -158 -368 -217 l-110
-47 -50 -87 c-130 -227 -239 -325 -505 -460 -213 -108 -331 -183 -448 -286
-236 -205 -420 -505 -496 -807 -59 -233 -78 -409 -77 -692 2 -393 53 -668 193
-1039 28 -73 52 -131 54 -129 2 1 -5 59 -16 127 -56 362 -72 789 -36 985 39
214 112 417 252 701 170 344 329 538 524 640 50 26 64 29 155 29 57 0 112 -5
128 -12 l27 -13 0 -759 c0 -683 -2 -759 -16 -765 -37 -14 -120 -5 -169 18 -70
34 -78 42 -219 220 -69 87 -126 156 -126 153 0 -3 20 -56 44 -119 138 -357
195 -760 151 -1070 -33 -235 -98 -443 -187 -600 -27 -47 -74 -105 -132 -164
-110 -109 -218 -169 -369 -204 l-95 -22 -6 -97 c-3 -53 -11 -402 -17 -776 -12
-733 -9 -825 42 -1262 74 -639 168 -961 364 -1253 65 -97 165 -228 165 -218 0
4 -24 62 -54 130 -96 222 -156 426 -193 658 -27 174 -24 549 5 770 81 599 242
1067 522 1516 72 114 274 394 286 394 2 0 4 -740 4 -1644 l0 -1644 -97 -63
c-267 -173 -512 -303 -888 -469 -241 -107 -619 -268 -770 -327 -88 -35 -127
-56 -89 -48 10 2 124 25 253 51 1245 245 2327 700 3496 1469 187 123 314 218
470 354 159 138 304 249 540 414 269 189 392 307 491 471 59 97 107 220 135
346 28 128 25 134 -30 48 -47 -73 -194 -238 -212 -238 -5 0 -9 446 -9 1010 0
801 3 1010 13 1010 25 -1 123 -77 160 -125 47 -62 138 -247 166 -337 72 -239
67 -638 -13 -1008 -8 -36 -13 -66 -12 -68 5 -5 91 197 125 292 42 118 76 255
103 412 18 105 22 170 22 349 1 194 -2 232 -22 325 -79 361 -253 665 -537 938
-198 192 -445 351 -698 452 l-59 23 6 51 c28 221 35 611 15 843 -12 151 -50
405 -83 553 l-23 105 -6 -65 c-3 -36 -11 -165 -17 -287 -16 -328 -48 -426
-187 -574 -155 -164 -343 -183 -539 -53 -77 51 -232 201 -293 283 -208 282
-291 743 -207 1141 61 291 224 688 391 956 253 403 633 740 1090 964 190 94
271 122 459 159 l141 28 -55 6 c-95 12 -231 6 -345 -14z m-2302 -2738 c93 -96
151 -176 207 -290 139 -279 127 -540 -35 -786 -61 -91 -180 -212 -274 -274
-60 -41 -209 -116 -216 -109 -2 2 26 41 61 87 163 217 234 447 234 761 0 242
-50 496 -146 744 -13 33 75 -36 169 -133z m-374 -136 c51 -163 54 -556 7 -757
-14 -60 -30 -116 -35 -125 -7 -13 -10 132 -11 470 0 314 3 486 10 482 5 -3 18
-35 29 -70z m605 -2475 c50 -225 60 -318 60 -587 l1 -253 23 63 c59 161 89
232 156 362 73 142 175 310 183 301 3 -2 -13 -60 -35 -128 -71 -218 -135 -459
-207 -772 -11 -52 56 77 238 454 55 116 125 241 170 308 76 111 179 245 211
271 22 18 21 10 -8 -179 -66 -420 -172 -794 -336 -1195 -54 -131 -234 -494
-283 -573 l-27 -42 63 -78 c127 -157 177 -280 177 -439 0 -150 -30 -239 -136
-401 -112 -172 -379 -512 -541 -688 -87 -95 -313 -297 -338 -302 -13 -3 -15
198 -15 1665 l0 1669 54 53 c64 63 59 67 104 -86 84 -279 112 -481 112 -786 0
-228 -10 -335 -51 -535 -11 -57 -18 -106 -16 -109 10 -10 138 267 176 383 79
240 98 374 111 824 13 418 38 882 61 1105 2 22 69 -197 93 -305z m2306 -1049
c0 -679 -4 -1082 -10 -1086 -5 -3 -39 -8 -75 -12 l-65 -6 0 1081 0 1082 28 6
c15 3 32 7 37 9 6 2 27 4 48 4 l37 1 0 -1079z m-320 -26 c0 -621 -4 -1015 -9
-1015 -17 0 -53 61 -74 123 -28 88 -35 344 -14 527 17 144 23 291 19 430 l-3
85 -35 -120 c-64 -221 -213 -492 -300 -546 -48 -29 -112 -25 -160 10 -21 15
-47 37 -56 47 -67 76 -64 254 8 397 46 91 199 296 336 449 l68 76 0 200 0 200
53 44 c53 46 145 108 159 108 4 0 8 -457 8 -1015z m-785 -910 c55 -8 179 -18
276 -22 l176 -6 18 -61 c28 -92 108 -243 170 -320 30 -38 55 -71 55 -75 0 -3
-71 -42 -157 -86 -194 -99 -358 -206 -488 -319 -90 -79 -285 -219 -293 -212
-1 2 14 32 35 67 163 280 207 620 118 930 -13 47 -27 94 -31 103 -7 19 -7 19
121 1z"/>
</g>
</svg>
